<svg xmlns="http://www.w3.org/2000/svg" width="800" height="500" viewBox="0 0 800 500">

  <defs>
    <linearGradient id="gculture3" x1="0" y1="0" x2="0" y2="1">
      <stop offset="0%"   stop-color="#150A2E"/>
      <stop offset="55%"  stop-color="#6B2060"/>
      <stop offset="100%" stop-color="#E84020"/>
    </linearGradient>
  </defs>
  <rect width="800" height="500" fill="url(#gculture3)"/>

  <ellipse cx="160" cy="95"  rx="80" ry="22" fill="white" opacity="0.1"/>
  <ellipse cx="200" cy="85"  rx="55" ry="18" fill="white" opacity="0.1"/>
  <ellipse cx="580" cy="110" rx="90" ry="24" fill="white" opacity="0.1"/>
  <ellipse cx="630" cy="100" rx="60" ry="18" fill="white" opacity="0.1"/>

  <!-- Far snow-capped peaks -->
  <polygon points="0,330 70,210 130,260 200,180 270,230 350,160 430,200 510,155 590,195 670,175 740,210 800,190 800,380 0,380"
           fill="#5A2060" opacity="0.75"/>
  <!-- Snow caps -->
  <polygon points="200,180 215,215 185,215" fill="white" opacity="0.55"/>
  <polygon points="350,160 368,200 332,200" fill="white" opacity="0.6"/>
  <polygon points="510,155 528,193 492,193" fill="white" opacity="0.6"/>
  <polygon points="670,175 685,210 655,210" fill="white" opacity="0.5"/>
  <!-- Mid range -->
  <polygon points="0,390 60,320 130,360 210,295 290,340 380,280 460,325 550,268 640,308 720,282 800,315 800,500 0,500"
           fill="#2A1040"/>
  <!-- Foreground hills -->
  <polygon points="0,455 140,415 300,445 460,408 620,438 780,412 800,420 800,500 0,500"
           fill="#120820"/>

  <!-- Main dzong base -->
  <rect x="315" y="280" width="170" height="75" fill="#6C3483" rx="3"/>
  <!-- Mid floor -->
  <rect x="330" y="238" width="140" height="46" fill="#D7BDE2" rx="2"/>
  <!-- Red stripe (traditional dzong band) -->
  <rect x="330" y="255" width="140" height="10" fill="#8B1A1A" opacity="0.5"/>
  <!-- Central tower -->
  <rect x="378" y="190" width="44" height="55" fill="#6C3483" rx="2"/>
  <rect x="382" y="195" width="36" height="10" fill="#8B1A1A" opacity="0.4"/>
  <!-- Central tower roof -->
  <polygon points="400,168 374,190 426,190" fill="#D7BDE2"/>
  <line x1="374" y1="190" x2="426" y2="190"
        stroke="#8B1A1A" stroke-width="2" opacity="0.5"/>
  <!-- Left wing tower -->
  <rect x="320" y="215" width="26" height="67" fill="#D7BDE2" rx="2"/>
  <polygon points="333,198 316,215 350,215" fill="#6C3483"/>
  <!-- Right wing tower -->
  <rect x="454" y="215" width="26" height="67" fill="#D7BDE2" rx="2"/>
  <polygon points="467,198 450,215 484,215" fill="#6C3483"/>
  <!-- Windows row -->
  <rect x="345" y="252" width="16" height="20" fill="rgba(0,0,0,0.45)" rx="2"/>
  <rect x="392"  y="252" width="16" height="20" fill="rgba(0,0,0,0.45)" rx="2"/>
  <rect x="439" y="252" width="16" height="20" fill="rgba(0,0,0,0.45)" rx="2"/>
  <!-- Gate arch -->
  <path d="M 386,355 L 386,320 Q 400,305 414,320 L 414,355 Z"
        fill="rgba(0,0,0,0.5)"/>
  <!-- Foundation steps -->
  <rect x="310" y="353" width="180" height="8"  fill="#6C3483" opacity="0.5" rx="1"/>
  <rect x="305" y="360" width="190" height="6"  fill="#D7BDE2" opacity="0.35" rx="1"/>
<line x1="160" y1="210" x2="640" y2="230"
       stroke="#8B6914" stroke-width="1.5" opacity="0.7"/><rect x="151.0" y="210.0"
         width="18" height="24" fill="#1565C0" opacity="0.88" rx="1"/><rect x="194.6" y="211.8"
         width="18" height="24" fill="#FFFFFF" opacity="0.88" rx="1"/><rect x="238.3" y="213.6"
         width="18" height="24" fill="#C0392B" opacity="0.88" rx="1"/><rect x="281.9" y="215.5"
         width="18" height="24" fill="#2E7D32" opacity="0.88" rx="1"/><rect x="325.5" y="217.3"
         width="18" height="24" fill="#F4D03F" opacity="0.88" rx="1"/><rect x="369.2" y="219.1"
         width="18" height="24" fill="#1565C0" opacity="0.88" rx="1"/><rect x="412.8" y="220.9"
         width="18" height="24" fill="#FFFFFF" opacity="0.88" rx="1"/><rect x="456.5" y="222.7"
         width="18" height="24" fill="#C0392B" opacity="0.88" rx="1"/><rect x="500.1" y="224.5"
         width="18" height="24" fill="#2E7D32" opacity="0.88" rx="1"/><rect x="543.7" y="226.4"
         width="18" height="24" fill="#F4D03F" opacity="0.88" rx="1"/><rect x="587.4" y="228.2"
         width="18" height="24" fill="#1565C0" opacity="0.88" rx="1"/><rect x="631.0" y="230.0"
         width="18" height="24" fill="#FFFFFF" opacity="0.88" rx="1"/>

  <rect x="0" y="0" width="800" height="500" fill="none"
        stroke="rgba(255,255,255,0.18)" stroke-width="10"/>
</svg>