<svg xmlns="http://www.w3.org/2000/svg" width="800" height="500" viewBox="0 0 800 500">

  <defs>
    <linearGradient id="gtechnology2" x1="0" y1="0" x2="0" y2="1">
      <stop offset="0%"   stop-color="#1565C0"/>
      <stop offset="55%"  stop-color="#4A90D9"/>
      <stop offset="100%" stop-color="#B8D9F0"/>
    </linearGradient>
  </defs>
  <rect width="800" height="500" fill="url(#gtechnology2)"/>

  <ellipse cx="160" cy="95"  rx="80" ry="22" fill="white" opacity="0.14"/>
  <ellipse cx="200" cy="85"  rx="55" ry="18" fill="white" opacity="0.14"/>
  <ellipse cx="580" cy="110" rx="90" ry="24" fill="white" opacity="0.14"/>
  <ellipse cx="630" cy="100" rx="60" ry="18" fill="white" opacity="0.14"/>

  <!-- Far snow-capped peaks -->
  <polygon points="0,330 70,210 130,260 200,180 270,230 350,160 430,200 510,155 590,195 670,175 740,210 800,190 800,380 0,380"
           fill="#8DAFC8" opacity="0.75"/>
  <!-- Snow caps -->
  <polygon points="200,180 215,215 185,215" fill="white" opacity="0.55"/>
  <polygon points="350,160 368,200 332,200" fill="white" opacity="0.6"/>
  <polygon points="510,155 528,193 492,193" fill="white" opacity="0.6"/>
  <polygon points="670,175 685,210 655,210" fill="white" opacity="0.5"/>
  <!-- Mid range -->
  <polygon points="0,390 60,320 130,360 210,295 290,340 380,280 460,325 550,268 640,308 720,282 800,315 800,500 0,500"
           fill="#3A7A3A"/>
  <!-- Foreground hills -->
  <polygon points="0,455 140,415 300,445 460,408 620,438 780,412 800,420 800,500 0,500"
           fill="#2A5A2A"/>

  <!-- Outer glow -->
  <circle cx="400" cy="215" r="78" fill="#A2D9CE" opacity="0.07"/>
  <!-- Rings -->
  <circle cx="400" cy="215" r="60"       fill="none" stroke="#148F77" stroke-width="4"/>
  <circle cx="400" cy="215" r="43.199999999999996" fill="none" stroke="#A2D9CE" stroke-width="2.5" opacity="0.7"/>
  <circle cx="400" cy="215" r="26.4" fill="none" stroke="#148F77" stroke-width="2"   opacity="0.8"/>
  <circle cx="400" cy="215" r="10.799999999999999" fill="#A2D9CE" opacity="0.6"/>
  <circle cx="400" cy="215" r="7"           fill="#148F77"/><circle cx="443.2" cy="215.0" r="9" fill="#A2D9CE" opacity="0.75"/><circle cx="430.5" cy="245.5" r="9" fill="#A2D9CE" opacity="0.75"/><circle cx="400.0" cy="258.2" r="9" fill="#A2D9CE" opacity="0.75"/><circle cx="369.5" cy="245.5" r="9" fill="#A2D9CE" opacity="0.75"/><circle cx="356.8" cy="215.0" r="9" fill="#A2D9CE" opacity="0.75"/><circle cx="369.5" cy="184.5" r="9" fill="#A2D9CE" opacity="0.75"/><circle cx="400.0" cy="171.8" r="9" fill="#A2D9CE" opacity="0.75"/><circle cx="430.5" cy="184.5" r="9" fill="#A2D9CE" opacity="0.75"/><line x1="426.4" y1="215.0" x2="454.0" y2="215.0"
         stroke="#148F77" stroke-width="2.5" stroke-linecap="round" opacity="0.7"/><line x1="418.7" y1="233.7" x2="438.2" y2="253.2"
         stroke="#148F77" stroke-width="2.5" stroke-linecap="round" opacity="0.7"/><line x1="400.0" y1="241.4" x2="400.0" y2="269.0"
         stroke="#148F77" stroke-width="2.5" stroke-linecap="round" opacity="0.7"/><line x1="381.3" y1="233.7" x2="361.8" y2="253.2"
         stroke="#148F77" stroke-width="2.5" stroke-linecap="round" opacity="0.7"/><line x1="373.6" y1="215.0" x2="346.0" y2="215.0"
         stroke="#148F77" stroke-width="2.5" stroke-linecap="round" opacity="0.7"/><line x1="381.3" y1="196.3" x2="361.8" y2="176.8"
         stroke="#148F77" stroke-width="2.5" stroke-linecap="round" opacity="0.7"/><line x1="400.0" y1="188.6" x2="400.0" y2="161.0"
         stroke="#148F77" stroke-width="2.5" stroke-linecap="round" opacity="0.7"/><line x1="418.7" y1="196.3" x2="438.2" y2="176.8"
         stroke="#148F77" stroke-width="2.5" stroke-linecap="round" opacity="0.7"/><line x1="466.0" y1="215.0" x2="472.0" y2="215.0"
         stroke="#A2D9CE" stroke-width="1.5" opacity="0.5"/><line x1="463.8" y1="232.1" x2="469.5" y2="233.6"
         stroke="#A2D9CE" stroke-width="1.5" opacity="0.5"/><line x1="457.2" y1="248.0" x2="462.4" y2="251.0"
         stroke="#A2D9CE" stroke-width="1.5" opacity="0.5"/><line x1="446.7" y1="261.7" x2="450.9" y2="265.9"
         stroke="#A2D9CE" stroke-width="1.5" opacity="0.5"/><line x1="433.0" y1="272.2" x2="436.0" y2="277.4"
         stroke="#A2D9CE" stroke-width="1.5" opacity="0.5"/><line x1="417.1" y1="278.8" x2="418.6" y2="284.5"
         stroke="#A2D9CE" stroke-width="1.5" opacity="0.5"/><line x1="400.0" y1="281.0" x2="400.0" y2="287.0"
         stroke="#A2D9CE" stroke-width="1.5" opacity="0.5"/><line x1="382.9" y1="278.8" x2="381.4" y2="284.5"
         stroke="#A2D9CE" stroke-width="1.5" opacity="0.5"/><line x1="367.0" y1="272.2" x2="364.0" y2="277.4"
         stroke="#A2D9CE" stroke-width="1.5" opacity="0.5"/><line x1="353.3" y1="261.7" x2="349.1" y2="265.9"
         stroke="#A2D9CE" stroke-width="1.5" opacity="0.5"/><line x1="342.8" y1="248.0" x2="337.6" y2="251.0"
         stroke="#A2D9CE" stroke-width="1.5" opacity="0.5"/><line x1="336.2" y1="232.1" x2="330.5" y2="233.6"
         stroke="#A2D9CE" stroke-width="1.5" opacity="0.5"/><line x1="334.0" y1="215.0" x2="328.0" y2="215.0"
         stroke="#A2D9CE" stroke-width="1.5" opacity="0.5"/><line x1="336.2" y1="197.9" x2="330.5" y2="196.4"
         stroke="#A2D9CE" stroke-width="1.5" opacity="0.5"/><line x1="342.8" y1="182.0" x2="337.6" y2="179.0"
         stroke="#A2D9CE" stroke-width="1.5" opacity="0.5"/><line x1="353.3" y1="168.3" x2="349.1" y2="164.1"
         stroke="#A2D9CE" stroke-width="1.5" opacity="0.5"/><line x1="367.0" y1="157.8" x2="364.0" y2="152.6"
         stroke="#A2D9CE" stroke-width="1.5" opacity="0.5"/><line x1="382.9" y1="151.2" x2="381.4" y2="145.5"
         stroke="#A2D9CE" stroke-width="1.5" opacity="0.5"/><line x1="400.0" y1="149.0" x2="400.0" y2="143.0"
         stroke="#A2D9CE" stroke-width="1.5" opacity="0.5"/><line x1="417.1" y1="151.2" x2="418.6" y2="145.5"
         stroke="#A2D9CE" stroke-width="1.5" opacity="0.5"/><line x1="433.0" y1="157.8" x2="436.0" y2="152.6"
         stroke="#A2D9CE" stroke-width="1.5" opacity="0.5"/><line x1="446.7" y1="168.3" x2="450.9" y2="164.1"
         stroke="#A2D9CE" stroke-width="1.5" opacity="0.5"/><line x1="457.2" y1="182.0" x2="462.4" y2="179.0"
         stroke="#A2D9CE" stroke-width="1.5" opacity="0.5"/><line x1="463.8" y1="197.9" x2="469.5" y2="196.4"
         stroke="#A2D9CE" stroke-width="1.5" opacity="0.5"/>


  <rect x="0" y="0" width="800" height="500" fill="none"
        stroke="rgba(255,255,255,0.18)" stroke-width="10"/>
</svg>